<svg xmlns="http://www.w3.org/2000/svg" width="760" height="184" viewBox="0 0 760 184" font-family="SFMono-Regular, Menlo, Consolas, 'Liberation Mono', monospace">
<defs>
  <linearGradient id="bg" x1="0" y1="0" x2="0" y2="1">
    <stop offset="0%" stop-color="#161b22"/>
    <stop offset="100%" stop-color="#0d1117"/>
  </linearGradient>
  <linearGradient id="titlebar" x1="0" y1="0" x2="1" y2="0">
    <stop offset="0%" stop-color="#21262d"/>
    <stop offset="100%" stop-color="#1c2128"/>
  </linearGradient>
  <filter id="shadow" x="-20%" y="-20%" width="140%" height="140%">
    <feDropShadow dx="0" dy="10" stdDeviation="18" flood-color="#000000" flood-opacity="0.45"/>
  </filter>
</defs>
<rect x="0" y="0" width="760" height="184" rx="14" ry="14" fill="url(#bg)" stroke="#14b8a6" stroke-opacity="0.35" stroke-width="1.5" filter="url(#shadow)"/>
<path d="M0,14 a14,14 0 0 1 14,-14 h732 a14,14 0 0 1 14,14 v20 h-760 z" fill="url(#titlebar)"/>
<circle cx="24" cy="17" r="6.5" fill="#ff5f56"/>
<circle cx="44" cy="17" r="6.5" fill="#ffbd2e"/>
<circle cx="64" cy="17" r="6.5" fill="#27c93f"/>
<text x="380.0" y="21" text-anchor="middle" fill="#8b949e" font-size="12.5" font-weight="600" letter-spacing="0.3">notionwiki status — ingestion health</text>
<rect x="0" y="34" width="760" height="2" fill="#14b8a6" fill-opacity="0.55"/>
<text x="22" y="58" xml:space="preserve" fill="#7dd3fc" font-size="13.5">$ notionwiki status</text>
<text x="22" y="78" xml:space="preserve" fill="#c9d1d9" font-size="13.5"></text>
<text x="22" y="98" xml:space="preserve" fill="#c9d1d9" font-size="13.5">141 sources</text>
<text x="22" y="118" xml:space="preserve" fill="#c9d1d9" font-size="13.5">Last pull:       13h ago</text>
<text x="22" y="138" xml:space="preserve" fill="#c9d1d9" font-size="13.5">Last full sweep: 13h ago</text>
<text x="22" y="158" xml:space="preserve" fill="#c9d1d9" font-size="13.5">No errors recorded</text>
</svg>